<?xml version="1.0" encoding="UTF-8" standalone="no"?>
<svg
   xmlns:dc="http://purl.org/dc/elements/1.1/"
   xmlns:cc="http://creativecommons.org/ns#"
   xmlns:rdf="http://www.w3.org/1999/02/22-rdf-syntax-ns#"
   xmlns:svg="http://www.w3.org/2000/svg"
   xmlns="http://www.w3.org/2000/svg"
   viewBox="0 0 600.87469 427.08667"
   height="427.08667"
   width="600.87469"
   xml:space="preserve"
   id="svg2"
   version="1.1"><metadata
     id="metadata8"><rdf:RDF><cc:Work
         rdf:about=""><dc:format>image/svg+xml</dc:format><dc:type
           rdf:resource="http://purl.org/dc/dcmitype/StillImage" /><dc:title></dc:title></cc:Work></rdf:RDF></metadata><defs
     id="defs6"><clipPath
       id="clipPath18"
       clipPathUnits="userSpaceOnUse"><path
         id="path16"
         d="M 0,320.315 H 450.656 V 0 H 0 Z" /></clipPath><clipPath
       id="clipPath38"
       clipPathUnits="userSpaceOnUse"><path
         id="path36"
         d="M 0,0 H 450.656 V 320.315 H 0 Z" /></clipPath></defs><g
     transform="matrix(1.3333333,0,0,-1.3333333,0,427.08667)"
     id="g10"><g
       id="g12"><g
         clip-path="url(#clipPath18)"
         id="g14"><g
           transform="translate(241.699,233.7313)"
           id="g20"><path
             id="path22"
             style="fill:#ffffff;fill-opacity:1;fill-rule:nonzero;stroke:none"
             d="m 0,0 c -33.136,25.336 -70.015,24.388 -72.387,24.862 -0.01,0 -0.118,-0.118 -0.118,-0.118 -16.9,-14.821 -26.857,-35.499 -26.857,-59.699 0,-44.63 36.28,-80.82 81.04,-80.82 27.429,0 50.85,11.666 65.5,32.466 0,0 -2.854,49.418 -47.178,83.309" /></g><g
           transform="translate(305.8914,199.8441)"
           id="g24"><path
             id="path26"
             style="fill:#ffffff;fill-opacity:1;fill-rule:nonzero;stroke:none"
             d="m 0,0 c 0,-1.2 -0.031,-2.41 -0.089,-3.6 -0.013,-0.34 -0.022,-0.68 -0.051,-1.02 -0.09,-1.68 -0.241,-3.36 -0.44,-5.02 -0.06,-0.52 -0.13,-1.03 -0.201,-1.55 -0.138,-1.03 -0.299,-2.05 -0.479,-3.07 -0.092,-0.51 -0.191,-1.02 -0.291,-1.52 -0.019,-0.06 -0.029,-0.12 -0.038,-0.19 -0.102,-0.5 -0.212,-1.01 -0.321,-1.51 -0.111,-0.51 -0.23,-1.02 -0.35,-1.53 -0.409,-1.7 -0.861,-3.38 -1.38,-5.02 -2.481,-7.94 -6.141,-15.34 -10.801,-22.02 -0.08,-0.13 -0.17,-0.25 -0.26,-0.37 0,0 -3.16,49.68 -47.99,82.9 -35.599,26.38 -71.032,24.546 -71.732,24.506 7.8,6.85 16.863,11.964 26.903,15.424 0.069,0.02 0.13,0.04 0.199,0.06 0.451,0.15 0.89,0.29 1.341,0.44 0.549,0.17 1.11,0.34 1.67,0.5 0.35,0.1 0.7,0.2 1.06,0.3 0.529,0.15 1.069,0.3 1.61,0.43 0.309,0.08 0.62,0.16 0.93,0.23 0.75,0.2 1.52,0.37 2.279,0.54 0.03,0.01 0.071,0.01 0.1,0.02 0.3,0.07 0.601,0.13 0.9,0.19 0.3,0.06 0.6,0.12 0.9,0.18 0.13,0.03 0.271,0.05 0.411,0.08 0.76,0.15 1.519,0.28 2.289,0.4 0.121,0.02 0.25,0.04 0.371,0.06 0.429,0.07 0.85,0.13 1.279,0.19 0.11,0.01 0.21,0.03 0.321,0.04 0.309,0.05 0.63,0.09 0.95,0.13 0.129,0.02 0.27,0.04 0.4,0.05 0.45,0.05 0.889,0.1 1.329,0.15 0.281,0.03 0.55,0.06 0.82,0.08 0.16,0.02 0.32,0.03 0.49,0.05 0.411,0.04 0.82,0.07 1.231,0.09 0.029,0.01 0.05,0.01 0.08,0.01 0.07,0.01 0.15,0.01 0.22,0.02 0.489,0.03 0.969,0.06 1.459,0.08 0.59,0.03 1.171,0.05 1.76,0.07 0.69,0.02 1.391,0.03 2.09,0.03 C -36.281,80.83 0,44.64 0,0" /></g><g
           transform="translate(131.9797,259.0214)"
           id="g28"><path
             id="path30"
             style="fill:#ffffff;fill-opacity:1;fill-rule:nonzero;stroke:none"
             d="m 0,0 c 0,0 48.475,31.765 91.857,31.765 40.101,0 73.222,-24.208 73.222,-24.208 V 39.24 c 0,0 -37.496,22.053 -72.857,22.053 -28.939,0 -58.754,-9.537 -92.282,-27.475 v 0 l -131.919,-76.96 v -33.02 L 1.31,-153.191 1.271,-119.361 -103.86,-60.262 -0.02,0.019" /></g></g></g><g
       id="g32"><g
         clip-path="url(#clipPath38)"
         id="g34"><g
           transform="translate(449.8635,215.0917)"
           id="g40"><path
             id="path42"
             style="fill:#ffffff;fill-opacity:1;fill-rule:nonzero;stroke:none"
             d="m 0,0 -133.287,77.037 -0.032,-33.831 105.194,-59.102 -103.556,-60.088 v 0.039 c 0,0 -48.83,-32.211 -92.212,-32.211 -40.101,0 -73.222,24.391 -73.222,24.391 l 0.106,-31.792 c 0,0 37.389,-22.129 72.751,-22.129 28.94,0 59.049,9.119 92.577,27.059 v 0.086 L 0,-33.016 Z" /></g></g></g></g></svg>